<?xml version="1.0" encoding="UTF-8" standalone="no"?>
<!-- Uploaded to: SVG Repo, www.svgrepo.com, Generator: SVG Repo Mixer Tools -->

<svg
   fill="#000000"
   width="800px"
   height="800px"
   viewBox="0 0 24 24"
   role="img"
   version="1.1"
   id="svg1"
   sodipodi:docname="brainsdamage-logo.svg"
   inkscape:version="1.3 (0e150ed6c4, 2023-07-21)"
   xmlns:inkscape="http://www.inkscape.org/namespaces/inkscape"
   xmlns:sodipodi="http://sodipodi.sourceforge.net/DTD/sodipodi-0.dtd"
   xmlns="http://www.w3.org/2000/svg"
   xmlns:svg="http://www.w3.org/2000/svg">
  <defs
     id="defs1" />
  <sodipodi:namedview
     id="namedview1"
     pagecolor="#ffffff"
     bordercolor="#666666"
     borderopacity="1.0"
     inkscape:showpageshadow="2"
     inkscape:pageopacity="0.0"
     inkscape:pagecheckerboard="0"
     inkscape:deskcolor="#d1d1d1"
     showgrid="false"
     inkscape:zoom="0.43398679"
     inkscape:cx="226.96543"
     inkscape:cy="326.04679"
     inkscape:window-width="1354"
     inkscape:window-height="736"
     inkscape:window-x="0"
     inkscape:window-y="0"
     inkscape:window-maximized="1"
     inkscape:current-layer="svg1" />
  <title
     id="title1">MusicBrainz icon</title>
  <path
     d="m 17.164,17.995 v 0.002 a 0.347,0.347 0 0 0 -0.223,0.084 0.352,0.352 0 0 0 0.23,0.62 0.347,0.347 0 0 0 0.23,-0.085 0.348,0.348 0 0 0 0.12,-0.24 0.353,0.353 0 0 0 -0.35,-0.38 0.347,0.347 0 0 0 -0.007,0 z"
     id="path10"
     style="fill:#458588" />
  <path
     d="m 19.967,15.507 a 0.352,0.352 0 0 0 -0.295,0.164 v 0.002 a 0.352,0.352 0 0 0 0.094,0.473 l 0.015,0.01 a 0.357,0.357 0 0 0 0.485,-0.108 0.352,0.352 0 0 0 -0.3,-0.54 z"
     id="path9"
     style="fill:#458588" />
  <path
     d="m 15.592,14.718 a 0.352,0.352 0 0 0 -0.291,0.172 0.35,0.35 0 0 0 -0.04,0.265 0.352,0.352 0 1 0 0.33,-0.437 z"
     id="path8"
     style="fill:#458588" />
  <path
     d="m 19.967,11.124 a 0.352,0.352 0 0 0 -0.295,0.164 0.35,0.35 0 0 0 0.094,0.475 l 0.015,0.01 a 0.357,0.357 0 0 0 0.485,-0.11 0.352,0.352 0 0 0 -0.3,-0.539 z"
     id="path7"
     style="fill:#458588" />
  <path
     d="m 16.09,8.647 a 0.352,0.352 0 0 0 -0.277,0.163 0.355,0.355 0 0 0 0.296,0.54 c 0.482,0 0.463,-0.73 -0.02,-0.703 z"
     id="path6"
     style="fill:#458588" />
  <path
     d="m 19.967,7.212 a 0.352,0.352 0 0 0 -0.295,0.165 v 0.002 a 0.35,0.35 0 0 0 0.096,0.473 l 0.013,0.01 A 0.357,0.357 0 0 0 20.268,7.754 0.352,0.352 0 0 0 19.967,7.213 Z"
     id="path5"
     style="fill:#458588" />
  <path
     d="M 11.582,6.832 7.082,9.5 v 2 l 4.5,-2.668 z"
     id="path4"
     style="fill:#458588" />
  <path
     d="m 16.572,4.904 a 0.352,0.352 0 0 0 -0.197,0.639 l 0.018,0.01 c 0.163,0.1 0.378,0.053 0.484,-0.108 V 5.443 A 0.352,0.352 0 0 0 16.574,4.904 Z"
     id="path3"
     style="fill:#458588" />
  <path
     d="m 12.418,0 v 6.162 c 0.574,0.03 1.14,0.16 1.668,0.387 a 2.225,2.225 0 0 0 1.656,-0.717 1.02,1.02 0 1 1 1.832,-0.803 l 0.004,0.006 a 1.022,1.022 0 0 1 -1.295,1.197 c -0.34,0.403 -0.792,0.698 -1.297,0.85 0.34,0.263 0.641,0.576 0.891,0.928 a 1.04,1.04 0 0 1 0.777,0.125 c 0.768,0.486 0.568,1.657 -0.318,1.857 -0.886,0.2 -1.574,-0.77 -1.09,-1.539 0.02,-0.03 0.042,-0.06 0.065,-0.09 A 3.598,3.598 0 0 0 13.875,7.197 4.142,4.142 0 0 0 12.418,6.828 v 4.01 c 0.855,0.06 1.256,0.493 1.555,0.834 0.227,0.256 0.356,0.39 0.578,0.402 0.323,0.018 0.568,0.008 0.806,0 a 5.44,5.44 0 0 1 0.895,0.022 c 0.94,-0.017 1.272,-0.226 1.605,-0.446 a 2.533,2.533 0 0 1 1.131,-0.463 1.027,1.027 0 0 1 0.12,-0.263 1.04,1.04 0 0 1 0.105,-0.137 c 0.023,-0.025 0.047,-0.044 0.07,-0.066 a 4.775,4.775 0 0 1 0,-2.405 l -0.012,-0.01 a 1.02,1.02 0 1 1 0.692,0.272 h -0.057 a 4.288,4.288 0 0 0 0,1.877 h 0.063 a 1.02,1.02 0 1 1 -0.545,1.883 l -0.047,-0.033 a 1,1 0 0 1 -0.352,-0.442 1.885,1.885 0 0 0 -0.814,0.354 3.03,3.03 0 0 1 -0.703,0.365 c 0.757,0.555 1.772,1.6 2.199,2.299 a 1.03,1.03 0 0 1 0.256,-0.033 1.02,1.02 0 1 1 -0.545,1.88 l -0.047,-0.03 a 1.017,1.017 0 0 1 -0.27,-1.376 0.72,0.72 0 0 1 0.051,-0.072 c -0.445,-0.775 -2.026,-2.28 -2.46,-2.387 a 4.037,4.037 0 0 0 -1.31,-0.117 c -0.24,0.008 -0.513,0.018 -0.866,0 -0.515,-0.027 -0.783,-0.333 -1.043,-0.629 -0.26,-0.296 -0.51,-0.56 -1.055,-0.611 V 18.5 a 1.877,1.877 0 0 0 0.426,-0.135 0.333,0.333 0 0 1 0.058,-0.027 c 0.56,-0.267 1.421,-0.91 2.096,-2.447 a 1.02,1.02 0 0 1 -0.27,-1.344 1.02,1.02 0 1 1 0.915,1.54 6.273,6.273 0 0 1 -1.432,2.136 1.785,1.785 0 0 1 0.691,0.306 0.667,0.667 0 0 0 0.37,0.168 3.31,3.31 0 0 0 0.888,-0.222 1.02,1.02 0 0 1 1.787,-0.79 V 17.68 a 1.02,1.02 0 0 1 -0.773,1.683 1.022,1.022 0 0 1 -0.719,-0.287 3.935,3.935 0 0 1 -1.168,0.287 h -0.05 a 1.313,1.313 0 0 1 -0.71,-0.275 c -0.262,-0.177 -0.51,-0.345 -1.402,-0.12 a 2.098,2.098 0 0 1 -0.707,0.2 V 24 L 22.582,18.168 V 5.832 Z"
     id="path2"
     style="fill:#458588;fill-opacity:1" />
  <path
     d="M 11.582,0 1.418,5.832 V 18.168 L 11.582,24 V 10.01 L 7.1,12.668 v 3.664 c 0.01,0.111 0.01,0.225 0,0.336 -0.103,0.435 -0.54,0.804 -1,1.111 C 5.298,18.316 4.348,18.288 3.934,17.668 3.521,17.048 3.793,16.037 4.6,15.5 4.984,15.22 5.463,15.101 5.934,15.168 V 6.619 C 5.934,6.465 6.068,6.367 6.16,6.311 L 11.582,3 Z"
     id="path1"
     style="fill:#458588" />
</svg>
